# xmcd
#
# Track frame offsets:
#	150
#	12454
#	31122
#	45245
#	69774
#	94037
#	113221
#	142800
#	164003
#
# Disc length: 2535 seconds
#
# Revision: 1
# Processed by: cddbd v1.5.2PL0 Copyright (c) Steve Scherf et al.
# Submitted via: audiograbber 1.82.01
#
DISCID=6609e509
DTITLE=Various Artist - Jazzism 5
DYEAR=2008
DGENRE=Jazz
TTITLE0=Ryan Shaw - Working on a building of love
TTITLE1=Dr. John - Dance the night away with you
TTITLE2=Marcela Mangabeira - Os grilos
TTITLE3=S.M.V. - Los tres hermanos
TTITLE4=Brecker Brothers - King of the lobby
TTITLE5=Renske Taminiau - Spring song
TTITLE6=Dave Pietro - Manipura (3rd chakra)
TTITLE7=Southside Johnny and Labamba's Big Band - New coat of paint
TTITLE8=Stephan Micus - Midnight sea
EXTD=YEAR: 2008
EXTT0=
EXTT1=
EXTT2=
EXTT3=
EXTT4=
EXTT5=
EXTT6=
EXTT7=
EXTT8=
PLAYORDER=
